<svg width="14" height="9" fill="none" xmlns="http://www.w3.org/2000/svg"><path d="M.374.576v4.645h12.748v-.929H7.238v-.929h5.884v-.929H7.238v-.929h5.884V.576H.374Zm.98.465c.13 0 .255.049.347.136a.452.452 0 0 1 .144.328.453.453 0 0 1-.144.329.504.504 0 0 1-.346.136.504.504 0 0 1-.347-.136.452.452 0 0 1-.144-.329c0-.123.052-.241.144-.328a.504.504 0 0 1 .347-.136Zm1.962 0c.13 0 .255.049.347.136a.452.452 0 0 1 .143.328.453.453 0 0 1-.143.329.504.504 0 0 1-.347.136.504.504 0 0 1-.347-.136.452.452 0 0 1-.143-.329c0-.123.051-.241.143-.328a.504.504 0 0 1 .347-.136Zm1.961 0c.13 0 .255.049.347.136a.452.452 0 0 1 .143.328.452.452 0 0 1-.143.329.504.504 0 0 1-.347.136.504.504 0 0 1-.347-.136.453.453 0 0 1-.143-.329c0-.123.051-.241.143-.328a.504.504 0 0 1 .347-.136ZM2.335 2.434c.13 0 .255.05.347.136a.453.453 0 0 1 .144.329.453.453 0 0 1-.144.328.505.505 0 0 1-.347.136.504.504 0 0 1-.346-.136.453.453 0 0 1-.144-.328c0-.123.052-.242.144-.329a.504.504 0 0 1 .346-.136Zm1.962 0c.13 0 .254.05.346.136a.453.453 0 0 1 .144.329.453.453 0 0 1-.144.328.504.504 0 0 1-.346.136.505.505 0 0 1-.347-.136.453.453 0 0 1-.144-.328c0-.123.052-.242.144-.329a.504.504 0 0 1 .347-.136Zm1.96 0c.13 0 .256.05.347.136a.453.453 0 0 1 .144.329.453.453 0 0 1-.144.328.504.504 0 0 1-.346.136.505.505 0 0 1-.347-.136.453.453 0 0 1-.144-.328c0-.123.052-.242.144-.329a.504.504 0 0 1 .347-.136ZM1.356 3.828c.13 0 .254.049.346.136a.453.453 0 0 1 .144.328.453.453 0 0 1-.144.329.504.504 0 0 1-.346.136.504.504 0 0 1-.347-.136.453.453 0 0 1-.144-.329c0-.123.052-.241.144-.328a.504.504 0 0 1 .347-.136Zm1.96 0c.13 0 .256.049.348.136a.453.453 0 0 1 .143.328.453.453 0 0 1-.143.329.504.504 0 0 1-.347.136.504.504 0 0 1-.347-.136.452.452 0 0 1-.143-.329c0-.123.051-.241.143-.328a.504.504 0 0 1 .347-.136Zm1.962 0c.13 0 .255.049.347.136a.452.452 0 0 1 .143.328.452.452 0 0 1-.143.329.504.504 0 0 1-.347.136.504.504 0 0 1-.347-.136.453.453 0 0 1-.143-.329c0-.123.051-.241.143-.328a.504.504 0 0 1 .347-.136ZM.374 6.15v.929h12.748v-.93H.374Zm0 1.858v.929h12.748v-.93H.374Z" fill="#D72626"/><path fill="#14047B" d="M.374.576h6.905v4.703H.374z"/><ellipse cx="1.171" cy="1.36" rx=".266" ry=".261" fill="#D9D9D9"/><ellipse cx="1.171" cy="3.45" rx=".266" ry=".261" fill="#D9D9D9"/><ellipse cx="1.702" cy="2.405" rx=".266" ry=".261" fill="#D9D9D9"/><ellipse cx="1.702" cy="4.496" rx=".266" ry=".261" fill="#D9D9D9"/><ellipse cx="2.233" cy="1.36" rx=".266" ry=".261" fill="#D9D9D9"/><ellipse cx="2.233" cy="3.45" rx=".266" ry=".261" fill="#D9D9D9"/><ellipse cx="2.764" cy="2.405" rx=".266" ry=".261" fill="#D9D9D9"/><ellipse cx="2.764" cy="4.496" rx=".266" ry=".261" fill="#D9D9D9"/><ellipse cx="5.42" cy="1.36" rx=".266" ry=".261" fill="#D9D9D9"/><ellipse cx="5.42" cy="3.45" rx=".266" ry=".261" fill="#D9D9D9"/><ellipse cx="6.482" cy="1.36" rx=".266" ry=".261" fill="#D9D9D9"/><ellipse cx="6.482" cy="3.45" rx=".266" ry=".261" fill="#D9D9D9"/><ellipse cx="3.827" cy="2.405" rx=".266" ry=".261" fill="#D9D9D9"/><ellipse cx="3.827" cy="4.496" rx=".266" ry=".261" fill="#D9D9D9"/><ellipse cx="4.889" cy="2.405" rx=".266" ry=".261" fill="#D9D9D9"/><ellipse cx="4.889" cy="4.496" rx=".266" ry=".261" fill="#D9D9D9"/><ellipse cx="3.295" cy="1.36" rx=".266" ry=".261" fill="#D9D9D9"/><ellipse cx="3.295" cy="3.45" rx=".266" ry=".261" fill="#D9D9D9"/><ellipse cx="4.358" cy="1.36" rx=".266" ry=".261" fill="#D9D9D9"/><ellipse cx="4.358" cy="3.45" rx=".266" ry=".261" fill="#D9D9D9"/><ellipse cx="5.951" cy="2.405" rx=".266" ry=".261" fill="#D9D9D9"/><ellipse cx="5.951" cy="4.496" rx=".266" ry=".261" fill="#D9D9D9"/></svg>