<svg width="18" height="18" viewBox="0 0 18 18" fill="none" xmlns="http://www.w3.org/2000/svg">
<path d="M9.83317 9.14579V6.49996C9.83317 6.26385 9.75345 6.06579 9.594 5.90579C9.434 5.74635 9.23595 5.66663 8.99984 5.66663C8.76373 5.66663 8.56595 5.74635 8.4065 5.90579C8.2465 6.06579 8.1665 6.26385 8.1665 6.49996V8.99996C8.1665 9.27774 8.21512 9.53468 8.31234 9.77079C8.40956 10.0069 8.55539 10.2222 8.74984 10.4166L10.5207 12.1875C10.6873 12.3541 10.8854 12.4375 11.1148 12.4375C11.3437 12.4375 11.5415 12.3541 11.7082 12.1875C11.8609 12.0208 11.9373 11.823 11.9373 11.5941C11.9373 11.3647 11.8609 11.1736 11.7082 11.0208L9.83317 9.14579ZM8.99984 2.33329C8.76373 2.33329 8.56595 2.41302 8.4065 2.57246C8.2465 2.73246 8.1665 2.93052 8.1665 3.16663C8.1665 3.40274 8.2465 3.60079 8.4065 3.76079C8.56595 3.92024 8.76373 3.99996 8.99984 3.99996C9.23595 3.99996 9.434 3.92024 9.594 3.76079C9.75345 3.60079 9.83317 3.40274 9.83317 3.16663C9.83317 2.93052 9.75345 2.73246 9.594 2.57246C9.434 2.41302 9.23595 2.33329 8.99984 2.33329ZM15.6665 8.99996C15.6665 8.76385 15.5865 8.56579 15.4265 8.40579C15.2671 8.24635 15.0693 8.16663 14.8332 8.16663C14.5971 8.16663 14.3993 8.24635 14.2398 8.40579C14.0798 8.56579 13.9998 8.76385 13.9998 8.99996C13.9998 9.23607 14.0798 9.43385 14.2398 9.59329C14.3993 9.75329 14.5971 9.83329 14.8332 9.83329C15.0693 9.83329 15.2671 9.75329 15.4265 9.59329C15.5865 9.43385 15.6665 9.23607 15.6665 8.99996ZM8.99984 14C8.76373 14 8.56595 14.08 8.4065 14.24C8.2465 14.3994 8.1665 14.5972 8.1665 14.8333C8.1665 15.0694 8.2465 15.2672 8.4065 15.4266C8.56595 15.5866 8.76373 15.6666 8.99984 15.6666C9.23595 15.6666 9.434 15.5866 9.594 15.4266C9.75345 15.2672 9.83317 15.0694 9.83317 14.8333C9.83317 14.5972 9.75345 14.3994 9.594 14.24C9.434 14.08 9.23595 14 8.99984 14ZM3.99984 8.99996C3.99984 8.76385 3.92011 8.56579 3.76067 8.40579C3.60067 8.24635 3.40262 8.16663 3.1665 8.16663C2.93039 8.16663 2.73234 8.24635 2.57234 8.40579C2.41289 8.56579 2.33317 8.76385 2.33317 8.99996C2.33317 9.23607 2.41289 9.43385 2.57234 9.59329C2.73234 9.75329 2.93039 9.83329 3.1665 9.83329C3.40262 9.83329 3.60067 9.75329 3.76067 9.59329C3.92011 9.43385 3.99984 9.23607 3.99984 8.99996ZM8.99984 17.3333C7.84706 17.3333 6.76373 17.1144 5.74984 16.6766C4.73595 16.2394 3.854 15.6458 3.104 14.8958C2.354 14.1458 1.76039 13.2638 1.32317 12.25C0.885393 11.2361 0.666504 10.1527 0.666504 8.99996C0.666504 7.84718 0.885393 6.76385 1.32317 5.74996C1.76039 4.73607 2.354 3.85413 3.104 3.10413C3.854 2.35413 4.73595 1.76024 5.74984 1.32246C6.76373 0.885237 7.84706 0.666626 8.99984 0.666626C10.1526 0.666626 11.2359 0.885237 12.2498 1.32246C13.2637 1.76024 14.1457 2.35413 14.8957 3.10413C15.6457 3.85413 16.2393 4.73607 16.6765 5.74996C17.1143 6.76385 17.3332 7.84718 17.3332 8.99996C17.3332 10.1527 17.1143 11.2361 16.6765 12.25C16.2393 13.2638 15.6457 14.1458 14.8957 14.8958C14.1457 15.6458 13.2637 16.2394 12.2498 16.6766C11.2359 17.1144 10.1526 17.3333 8.99984 17.3333Z" fill="#00A3FF"/>
</svg>
