<svg width="34" height="34" viewBox="0 0 34 34" fill="none" xmlns="http://www.w3.org/2000/svg">
<path d="M31.8333 0.333374H2.16659C1.68035 0.333374 1.21404 0.526528 0.870223 0.870345C0.526406 1.21416 0.333252 1.68048 0.333252 2.16671V31.8334C0.333252 32.3196 0.526406 32.7859 0.870223 33.1297C1.21404 33.4736 1.68035 33.6667 2.16659 33.6667H18.1333V20.75H13.7999V15.75H18.1333V12C18.0435 11.1196 18.1474 10.2303 18.4378 9.39427C18.7281 8.55829 19.1979 7.79595 19.814 7.16073C20.4302 6.5255 21.1779 6.03278 22.0046 5.7171C22.8314 5.40143 23.7172 5.27046 24.5999 5.33337C25.8971 5.32539 27.1937 5.39217 28.4833 5.53337V10.0334H25.8333C23.7333 10.0334 23.3333 11.0334 23.3333 12.4834V15.7H28.3333L27.6833 20.7H23.3333V33.6667H31.8333C32.074 33.6667 32.3124 33.6193 32.5348 33.5272C32.7573 33.435 32.9594 33.3 33.1296 33.1297C33.2999 32.9595 33.4349 32.7574 33.527 32.535C33.6192 32.3125 33.6666 32.0741 33.6666 31.8334V2.16671C33.6666 1.92595 33.6192 1.68755 33.527 1.46512C33.4349 1.24269 33.2999 1.04059 33.1296 0.870345C32.9594 0.700104 32.7573 0.565062 32.5348 0.472928C32.3124 0.380795 32.074 0.333374 31.8333 0.333374Z" fill="#00A3FE"/>
</svg>
