<svg width="14" height="9" viewBox="0 0 14 9" fill="none" xmlns="http://www.w3.org/2000/svg">
<path d="M0.374023 0.57605V5.22143H13.1222V4.29235H7.2384V3.36328H13.1222V2.4342H7.2384V1.50512H13.1222V0.57605H0.374023ZM1.35465 1.04059C1.48469 1.04059 1.6094 1.08953 1.70135 1.17665C1.7933 1.26377 1.84496 1.38192 1.84496 1.50512C1.84496 1.62833 1.7933 1.74648 1.70135 1.8336C1.6094 1.92072 1.48469 1.96966 1.35465 1.96966C1.22461 1.96966 1.0999 1.92072 1.00795 1.8336C0.915994 1.74648 0.864336 1.62833 0.864336 1.50512C0.864336 1.38192 0.915994 1.26377 1.00795 1.17665C1.0999 1.08953 1.22461 1.04059 1.35465 1.04059ZM3.3159 1.04059C3.44594 1.04059 3.57065 1.08953 3.6626 1.17665C3.75455 1.26377 3.80621 1.38192 3.80621 1.50512C3.80621 1.62833 3.75455 1.74648 3.6626 1.8336C3.57065 1.92072 3.44594 1.96966 3.3159 1.96966C3.18586 1.96966 3.06115 1.92072 2.9692 1.8336C2.87724 1.74648 2.82559 1.62833 2.82559 1.50512C2.82559 1.38192 2.87724 1.26377 2.9692 1.17665C3.06115 1.08953 3.18586 1.04059 3.3159 1.04059ZM5.27715 1.04059C5.40719 1.04059 5.5319 1.08953 5.62385 1.17665C5.71581 1.26377 5.76746 1.38192 5.76746 1.50512C5.76746 1.62833 5.71581 1.74648 5.62385 1.8336C5.5319 1.92072 5.40719 1.96966 5.27715 1.96966C5.14711 1.96966 5.0224 1.92072 4.93045 1.8336C4.8385 1.74648 4.78684 1.62833 4.78684 1.50512C4.78684 1.38192 4.8385 1.26377 4.93045 1.17665C5.0224 1.08953 5.14711 1.04059 5.27715 1.04059ZM2.33527 2.4342C2.46531 2.4342 2.59003 2.48314 2.68198 2.57026C2.77393 2.65738 2.82559 2.77553 2.82559 2.89874C2.82559 3.02194 2.77393 3.1401 2.68198 3.22722C2.59003 3.31433 2.46531 3.36328 2.33527 3.36328C2.20524 3.36328 2.08052 3.31433 1.98857 3.22722C1.89662 3.1401 1.84496 3.02194 1.84496 2.89874C1.84496 2.77553 1.89662 2.65738 1.98857 2.57026C2.08052 2.48314 2.20524 2.4342 2.33527 2.4342ZM4.29653 2.4342C4.42656 2.4342 4.55128 2.48314 4.64323 2.57026C4.73518 2.65738 4.78684 2.77553 4.78684 2.89874C4.78684 3.02194 4.73518 3.1401 4.64323 3.22722C4.55128 3.31433 4.42656 3.36328 4.29653 3.36328C4.16649 3.36328 4.04177 3.31433 3.94982 3.22722C3.85787 3.1401 3.80621 3.02194 3.80621 2.89874C3.80621 2.77553 3.85787 2.65738 3.94982 2.57026C4.04177 2.48314 4.16649 2.4342 4.29653 2.4342ZM6.25778 2.4342C6.38781 2.4342 6.51253 2.48314 6.60448 2.57026C6.69643 2.65738 6.74809 2.77553 6.74809 2.89874C6.74809 3.02194 6.69643 3.1401 6.60448 3.22722C6.51253 3.31433 6.38781 3.36328 6.25778 3.36328C6.12774 3.36328 6.00302 3.31433 5.91107 3.22722C5.81912 3.1401 5.76746 3.02194 5.76746 2.89874C5.76746 2.77553 5.81912 2.65738 5.91107 2.57026C6.00302 2.48314 6.12774 2.4342 6.25778 2.4342ZM1.35465 3.82781C1.48469 3.82781 1.6094 3.87675 1.70135 3.96387C1.7933 4.05099 1.84496 4.16915 1.84496 4.29235C1.84496 4.41555 1.7933 4.53371 1.70135 4.62083C1.6094 4.70795 1.48469 4.75689 1.35465 4.75689C1.22461 4.75689 1.0999 4.70795 1.00795 4.62083C0.915994 4.53371 0.864336 4.41555 0.864336 4.29235C0.864336 4.16915 0.915994 4.05099 1.00795 3.96387C1.0999 3.87675 1.22461 3.82781 1.35465 3.82781ZM3.3159 3.82781C3.44594 3.82781 3.57065 3.87675 3.6626 3.96387C3.75455 4.05099 3.80621 4.16915 3.80621 4.29235C3.80621 4.41555 3.75455 4.53371 3.6626 4.62083C3.57065 4.70795 3.44594 4.75689 3.3159 4.75689C3.18586 4.75689 3.06115 4.70795 2.9692 4.62083C2.87724 4.53371 2.82559 4.41555 2.82559 4.29235C2.82559 4.16915 2.87724 4.05099 2.9692 3.96387C3.06115 3.87675 3.18586 3.82781 3.3159 3.82781ZM5.27715 3.82781C5.40719 3.82781 5.5319 3.87675 5.62385 3.96387C5.71581 4.05099 5.76746 4.16915 5.76746 4.29235C5.76746 4.41555 5.71581 4.53371 5.62385 4.62083C5.5319 4.70795 5.40719 4.75689 5.27715 4.75689C5.14711 4.75689 5.0224 4.70795 4.93045 4.62083C4.8385 4.53371 4.78684 4.41555 4.78684 4.29235C4.78684 4.16915 4.8385 4.05099 4.93045 3.96387C5.0224 3.87675 5.14711 3.82781 5.27715 3.82781ZM0.374023 6.1505V7.07958H13.1222V6.1505H0.374023ZM0.374023 8.00865V8.93773H13.1222V8.00865H0.374023Z" fill="#D72626"/>
<rect x="0.374023" y="0.57605" width="6.90524" height="4.70344" fill="#14047B"/>
<ellipse cx="1.17086" cy="1.35994" rx="0.265586" ry="0.261302" fill="#D9D9D9"/>
<ellipse cx="1.17086" cy="3.45039" rx="0.265586" ry="0.261302" fill="#D9D9D9"/>
<ellipse cx="1.70211" cy="2.40522" rx="0.265586" ry="0.261302" fill="#D9D9D9"/>
<ellipse cx="1.70211" cy="4.49556" rx="0.265586" ry="0.261302" fill="#D9D9D9"/>
<ellipse cx="2.23336" cy="1.35994" rx="0.265586" ry="0.261302" fill="#D9D9D9"/>
<ellipse cx="2.23336" cy="3.45039" rx="0.265586" ry="0.261302" fill="#D9D9D9"/>
<ellipse cx="2.76412" cy="2.40522" rx="0.265586" ry="0.261302" fill="#D9D9D9"/>
<ellipse cx="2.76412" cy="4.49556" rx="0.265586" ry="0.261302" fill="#D9D9D9"/>
<ellipse cx="5.42037" cy="1.35994" rx="0.265586" ry="0.261302" fill="#D9D9D9"/>
<ellipse cx="5.42037" cy="3.45039" rx="0.265586" ry="0.261302" fill="#D9D9D9"/>
<ellipse cx="6.48238" cy="1.35994" rx="0.265586" ry="0.261302" fill="#D9D9D9"/>
<ellipse cx="6.48238" cy="3.45039" rx="0.265586" ry="0.261302" fill="#D9D9D9"/>
<ellipse cx="3.82662" cy="2.40522" rx="0.265586" ry="0.261302" fill="#D9D9D9"/>
<ellipse cx="3.82662" cy="4.49556" rx="0.265586" ry="0.261302" fill="#D9D9D9"/>
<ellipse cx="4.88912" cy="2.40522" rx="0.265586" ry="0.261302" fill="#D9D9D9"/>
<ellipse cx="4.88912" cy="4.49556" rx="0.265586" ry="0.261302" fill="#D9D9D9"/>
<ellipse cx="3.29537" cy="1.35994" rx="0.265586" ry="0.261302" fill="#D9D9D9"/>
<ellipse cx="3.29537" cy="3.45039" rx="0.265586" ry="0.261302" fill="#D9D9D9"/>
<ellipse cx="4.35787" cy="1.35994" rx="0.265586" ry="0.261302" fill="#D9D9D9"/>
<ellipse cx="4.35787" cy="3.45039" rx="0.265586" ry="0.261302" fill="#D9D9D9"/>
<ellipse cx="5.95113" cy="2.40522" rx="0.265586" ry="0.261302" fill="#D9D9D9"/>
<ellipse cx="5.95113" cy="4.49556" rx="0.265586" ry="0.261302" fill="#D9D9D9"/>
</svg>
