<svg width="37" height="37" viewBox="0 0 37 37" fill="none" xmlns="http://www.w3.org/2000/svg">
<path d="M24.16 18.6C24.16 19.7392 23.8222 20.8528 23.1893 21.8001C22.5564 22.7473 21.6568 23.4856 20.6043 23.9215C19.5518 24.3575 18.3936 24.4716 17.2763 24.2493C16.159 24.027 15.1326 23.4785 14.3271 22.6729C13.5215 21.8674 12.973 20.841 12.7507 19.7237C12.5285 18.6064 12.6425 17.4482 13.0785 16.3957C13.5144 15.3432 14.2527 14.4436 15.1999 13.8107C16.1472 13.1778 17.2608 12.84 18.4 12.84C19.9262 12.8447 21.3885 13.4531 22.4677 14.5323C23.5469 15.6115 24.1553 17.0738 24.16 18.6V18.6ZM36.4 10.68V26.52C36.4 29.1934 35.338 31.7572 33.4477 33.6476C31.5573 35.538 28.9934 36.6 26.32 36.6H10.48C7.80664 36.6 5.24275 35.538 3.35239 33.6476C1.46202 31.7572 0.400024 29.1934 0.400024 26.52V10.68C0.400024 8.00659 1.46202 5.44271 3.35239 3.55234C5.24275 1.66197 7.80664 0.599976 10.48 0.599976H26.32C28.9934 0.599976 31.5573 1.66197 33.4477 3.55234C35.338 5.44271 36.4 8.00659 36.4 10.68V10.68ZM27.04 18.6C27.04 16.8911 26.5333 15.2207 25.5839 13.7998C24.6345 12.379 23.2852 11.2716 21.7064 10.6177C20.1277 9.96372 18.3904 9.79262 16.7144 10.126C15.0384 10.4594 13.4989 11.2822 12.2906 12.4906C11.0823 13.6989 10.2594 15.2384 9.92604 16.9144C9.59266 18.5904 9.76377 20.3276 10.4177 21.9064C11.0716 23.4851 12.1791 24.8345 13.5999 25.7839C15.0207 26.7332 16.6912 27.24 18.4 27.24C20.6915 27.24 22.8891 26.3297 24.5094 24.7094C26.1297 23.0891 27.04 20.8914 27.04 18.6ZM29.92 9.23998C29.92 8.81277 29.7933 8.39515 29.556 8.03994C29.3187 7.68473 28.9813 7.40788 28.5866 7.2444C28.1919 7.08091 27.7576 7.03814 27.3386 7.12148C26.9196 7.20482 26.5348 7.41054 26.2327 7.71262C25.9306 8.01471 25.7249 8.39958 25.6415 8.81858C25.5582 9.23758 25.601 9.67188 25.7644 10.0666C25.9279 10.4613 26.2048 10.7986 26.56 11.036C26.9152 11.2733 27.3328 11.4 27.76 11.4C28.3329 11.4 28.8823 11.1724 29.2874 10.7673C29.6925 10.3622 29.92 9.81284 29.92 9.23998Z" fill="#00A3FE"/>
</svg>
