<svg aria-hidden="true" style="position: absolute; width: 0; height: 0; overflow: hidden;" version="1.1" xmlns="http://www.w3.org/2000/svg" xmlns:xlink="http://www.w3.org/1999/xlink">
<defs>
<symbol id="icon_phone-call-fill" viewBox="0 0 32 32">
<path  d="M28.95 21.887c-0.221 1.688-1.048 3.238-2.326 4.363s-2.922 1.746-4.624 1.75c-9.925 0-18-8.075-18-18 0.004-1.702 0.626-3.346 1.75-4.624s2.675-2.105 4.363-2.326c0.43-0.048 0.865 0.043 1.24 0.259s0.672 0.546 0.848 0.941l2.512 5.863c0.13 0.304 0.183 0.636 0.152 0.966s-0.143 0.646-0.327 0.922l-2.075 3.175c0.94 1.907 2.488 3.446 4.4 4.375l3.137-2.088c0.275-0.185 0.592-0.297 0.923-0.326s0.662 0.028 0.965 0.163l5.863 2.5c0.396 0.175 0.725 0.472 0.941 0.848s0.306 0.81 0.259 1.24zM19.675 5.962c1.522 0.416 2.909 1.221 4.025 2.337s1.921 2.503 2.337 4.025c0.055 0.214 0.18 0.403 0.354 0.539s0.388 0.21 0.609 0.211c0.089-0 0.177-0.013 0.263-0.037 0.127-0.033 0.246-0.092 0.351-0.171s0.192-0.18 0.257-0.294c0.065-0.114 0.107-0.24 0.123-0.37s0.006-0.263-0.030-0.389c-0.5-1.864-1.482-3.564-2.846-4.929s-3.064-2.346-4.929-2.846c-0.13-0.048-0.269-0.067-0.408-0.058s-0.274 0.047-0.397 0.111-0.232 0.153-0.318 0.262c-0.087 0.108-0.15 0.234-0.186 0.368s-0.043 0.274-0.022 0.411c0.021 0.137 0.071 0.268 0.146 0.385s0.173 0.217 0.289 0.294c0.116 0.077 0.246 0.129 0.383 0.152zM18.637 9.825c0.846 0.232 1.617 0.68 2.238 1.3s1.068 1.391 1.3 2.238c0.053 0.215 0.177 0.405 0.352 0.541s0.39 0.209 0.611 0.209c0.085 0.001 0.169-0.012 0.25-0.037 0.128-0.032 0.249-0.089 0.354-0.169s0.194-0.179 0.261-0.293c0.066-0.114 0.109-0.241 0.126-0.372s0.007-0.264-0.029-0.391c-0.316-1.188-0.94-2.272-1.809-3.141s-1.953-1.493-3.141-1.809c-0.131-0.048-0.269-0.067-0.408-0.058s-0.274 0.047-0.397 0.111c-0.123 0.064-0.232 0.153-0.318 0.262s-0.15 0.234-0.186 0.368c-0.036 0.134-0.043 0.274-0.022 0.411s0.071 0.268 0.146 0.385c0.075 0.117 0.173 0.217 0.289 0.294s0.246 0.129 0.383 0.152z"></path>
</symbol>
<symbol id="icon-bild" viewBox="0 0 32 32">
<path  d="M15.238 6.857v-6.095h-15.238v27.429h17.295c-0.356-0.977-0.536-2.008-0.533-3.048h-1.524v-3.048h2.057c0.231-0.71 0.564-1.383 0.99-1.996v-1.051h-3.048v-3.048h3.048v-3.048h-3.048v-3.048h12.19v6.232c1.077 0.167 2.111 0.54 3.048 1.097v-10.377zM6.095 25.143h-3.048v-3.048h3.048zM6.095 19.048h-3.048v-3.048h3.048zM6.095 12.952h-3.048v-3.048h3.048zM6.095 6.857h-3.048v-3.048h3.048zM12.19 25.143h-3.048v-3.048h3.048zM12.19 19.048h-3.048v-3.048h3.048zM12.19 12.952h-3.048v-3.048h3.048zM12.19 6.857h-3.048v-3.048h3.048zM21.333 16h3.048v-3.048h-3.048zM21.333 12.952v3.048h3.048v-3.048zM21.333 12.952v3.048h3.048v-3.048zM27.429 19.048v4.571h4.571v3.048h-4.571v4.571h-3.048v-4.571h-4.571v-3.048h4.571v-4.571h3.048z"></path>
</symbol>
<symbol id="icon-burger" viewBox="0 0 32 32">
<path  d="M0 26.667h32v-3.556h-32v3.556zM0 17.778h32v-3.556h-32v3.556zM0 5.333v3.556h32v-3.556h-32z"></path>
</symbol>
<symbol id="icon-close" viewBox="0 0 32 32">
<path  d="M5.828 2.217l10.172 10.172 10.119-10.12c0.224-0.238 0.493-0.428 0.792-0.56s0.621-0.201 0.948-0.205c0.699 0 1.369 0.278 1.864 0.772s0.772 1.165 0.772 1.863c0.006 0.323-0.054 0.644-0.176 0.943s-0.305 0.57-0.536 0.796l-10.251 10.12 10.251 10.251c0.434 0.425 0.689 1 0.712 1.608 0 0.699-0.278 1.369-0.772 1.864s-1.165 0.772-1.864 0.772c-0.336 0.014-0.671-0.042-0.984-0.165s-0.597-0.309-0.834-0.547l-10.040-10.172-10.146 10.146c-0.223 0.23-0.489 0.414-0.783 0.54s-0.61 0.194-0.93 0.197c-0.699 0-1.369-0.278-1.863-0.772s-0.772-1.164-0.772-1.864c-0.006-0.323 0.054-0.644 0.176-0.943s0.305-0.57 0.535-0.796l10.251-10.119-10.251-10.251c-0.434-0.425-0.689-1-0.712-1.608 0-0.699 0.278-1.369 0.772-1.863s1.165-0.772 1.863-0.772c0.632 0.008 1.239 0.264 1.687 0.712z"></path>
</symbol>
<symbol id="icon-contact-phone" viewBox="0 0 32 32">
<path  d="M29.333 4h-26.667c-1.467 0-2.667 1.2-2.667 2.667v18.667c0 1.467 1.2 2.667 2.667 2.667h26.667c1.467 0 2.653-1.2 2.653-2.667l0.013-18.667c0-1.467-1.2-2.667-2.667-2.667zM10.667 8c2.213 0 4 1.787 4 4s-1.787 4-4 4c-2.213 0-4-1.787-4-4s1.787-4 4-4zM18.667 24h-16v-1.333c0-2.667 5.333-4.133 8-4.133s8 1.467 8 4.133v1.333zM23.8 18.667h2.187l2.013 2.667-2.653 2.653c-1.766-1.324-3.046-3.194-3.64-5.32-0.24-0.853-0.373-1.747-0.373-2.667s0.133-1.813 0.373-2.667c0.59-2.128 1.871-3.999 3.64-5.32l2.653 2.653-2.013 2.667h-2.187c-0.293 0.84-0.467 1.733-0.467 2.667s0.173 1.827 0.467 2.667z"></path>
</symbol>
<symbol id="icon-gallery-solid" viewBox="0 0 32 32">
<path  d="M26.791 2.667c0-0.236-0.094-0.462-0.26-0.629s-0.393-0.26-0.629-0.26h-19.556c-0.236 0-0.462 0.094-0.629 0.26s-0.26 0.393-0.26 0.629v0.889h21.333v-0.889z"></path>
<path d="M28.551 6.222c0-0.236-0.094-0.462-0.26-0.629s-0.393-0.26-0.629-0.26h-23.111c-0.236 0-0.462 0.094-0.629 0.26s-0.26 0.393-0.26 0.629v0.889h24.889v-0.889z"></path>
<path  d="M28.551 8.889h-25.102c-0.443 0-0.868 0.176-1.182 0.489s-0.489 0.738-0.489 1.182v16.213c0 0.443 0.176 0.868 0.489 1.182s0.738 0.489 1.182 0.489h25.102c0.443 0 0.868-0.176 1.182-0.489s0.489-0.738 0.489-1.182v-16.213c0-0.443-0.176-0.868-0.489-1.182s-0.738-0.489-1.182-0.489zM7.609 11.956c0.527 0 1.043 0.156 1.482 0.449s0.78 0.71 0.982 1.197c0.202 0.487 0.255 1.023 0.152 1.541s-0.357 0.992-0.73 1.365c-0.373 0.373-0.848 0.627-1.365 0.73s-1.053 0.050-1.541-0.152c-0.487-0.202-0.904-0.544-1.197-0.982s-0.449-0.954-0.449-1.482c0-0.707 0.281-1.385 0.781-1.886s1.178-0.781 1.886-0.781zM26.667 24.889h-21.333l6.631-6.64c0.118-0.117 0.278-0.183 0.444-0.183s0.326 0.066 0.444 0.183l3.271 3.271 4.507-4.631c0.118-0.117 0.278-0.183 0.444-0.183s0.326 0.066 0.445 0.183l5.147 5.147v2.853z"></path>
</symbol>
<symbol id="icon-info" viewBox="0 0 32 32">
<path  d="M17.6 11.2h-3.2v-3.2h3.2zM17.6 24h-3.2v-9.6h3.2zM16 0c-2.101 0-4.182 0.414-6.123 1.218s-3.705 1.983-5.191 3.468c-3.001 3.001-4.686 7.070-4.686 11.314s1.686 8.313 4.686 11.314c1.486 1.486 3.25 2.664 5.191 3.468s4.022 1.218 6.123 1.218c4.244 0 8.313-1.686 11.314-4.686s4.686-7.070 4.686-11.314c0-2.101-0.414-4.182-1.218-6.123s-1.983-3.705-3.468-5.191-3.25-2.664-5.191-3.468c-1.941-0.804-4.022-1.218-6.123-1.218v0z"></path>
</symbol>
<symbol id="icon-language" viewBox="0 0 32 32">
<path  d="M25.44 24.624c-0.416-1.28-1.616-2.224-3.040-2.224h-1.6v-4.8c0-0.424-0.169-0.831-0.469-1.131s-0.707-0.469-1.131-0.469h-9.6v-3.2h3.2c0.424 0 0.831-0.169 1.131-0.469s0.469-0.707 0.469-1.131v-3.2h3.2c0.849 0 1.663-0.337 2.263-0.937s0.937-1.414 0.937-2.263v-0.656c1.914 0.772 3.613 1.996 4.951 3.568s2.275 3.444 2.731 5.457c0.456 2.013 0.418 4.107-0.112 6.102s-1.535 3.832-2.93 5.353zM14.4 28.688c-6.32-0.784-11.2-6.16-11.2-12.688 0-0.992 0.128-1.952 0.336-2.864l7.664 7.664v1.6c0 0.849 0.337 1.663 0.937 2.263s1.414 0.937 2.263 0.937zM16 0c-2.101 0-4.182 0.414-6.123 1.218s-3.705 1.983-5.191 3.468c-3.001 3.001-4.686 7.070-4.686 11.314s1.686 8.313 4.686 11.314c1.486 1.486 3.25 2.664 5.191 3.468s4.022 1.218 6.123 1.218c4.244 0 8.313-1.686 11.314-4.686s4.686-7.070 4.686-11.314c0-2.101-0.414-4.182-1.218-6.123s-1.983-3.705-3.468-5.191-3.25-2.664-5.191-3.468c-1.941-0.804-4.022-1.218-6.123-1.218z"></path>
</symbol>
<symbol id="icon-location" viewBox="0 0 32 32">
<path  d="M16 0c-6.192 0-11.2 5.008-11.2 11.2 0 8.4 11.2 20.8 11.2 20.8s11.2-12.4 11.2-20.8c0-6.192-5.008-11.2-11.2-11.2zM16 15.2c-1.061 0-2.078-0.421-2.828-1.172s-1.172-1.768-1.172-2.828c0-1.061 0.421-2.078 1.172-2.828s1.768-1.172 2.828-1.172c1.061 0 2.078 0.421 2.828 1.172s1.172 1.768 1.172 2.828c0 1.061-0.421 2.078-1.172 2.828s-1.768 1.172-2.828 1.172z"></path>
</symbol>
<symbol id="icon-select-multiple" viewBox="0 0 32 32">
<path  d="M26.667 2.667h-16c-0.707 0-1.386 0.281-1.886 0.781s-0.781 1.178-0.781 1.886v16c0 0.707 0.281 1.385 0.781 1.886s1.178 0.781 1.886 0.781h16c0.707 0 1.385-0.281 1.886-0.781s0.781-1.178 0.781-1.886v-16c0-0.707-0.281-1.386-0.781-1.886s-1.178-0.781-1.886-0.781zM17.423 19.308l-4.365-4.365 1.885-1.885 2.301 2.301 5.732-6.879 2.049 1.708-7.603 9.12z"></path>
<path  d="M5.333 29.333h14.667v-2.667h-14.667v-16h-2.667v16c0 1.471 1.196 2.667 2.667 2.667z"></path>
</symbol>
<symbol id="icon-clock" viewBox="0 0 32 32">
<path  d="M17.481 16.259v-4.704c0-0.42-0.142-0.772-0.425-1.056-0.284-0.283-0.637-0.425-1.056-0.425s-0.771 0.142-1.055 0.425c-0.284 0.284-0.427 0.637-0.427 1.056v4.444c0 0.494 0.086 0.951 0.259 1.37s0.432 0.802 0.778 1.148l3.148 3.148c0.296 0.296 0.648 0.444 1.056 0.444s0.759-0.148 1.055-0.444c0.271-0.296 0.407-0.648 0.407-1.055s-0.136-0.748-0.407-1.019l-3.333-3.333zM16 4.148c-0.42 0-0.771 0.142-1.055 0.425-0.284 0.284-0.427 0.637-0.427 1.056s0.142 0.772 0.427 1.056c0.283 0.283 0.635 0.425 1.055 0.425s0.772-0.142 1.056-0.425c0.283-0.284 0.425-0.637 0.425-1.056s-0.142-0.772-0.425-1.056c-0.284-0.283-0.637-0.425-1.056-0.425zM27.852 16c0-0.42-0.142-0.772-0.427-1.056-0.283-0.283-0.635-0.425-1.055-0.425s-0.771 0.142-1.055 0.425c-0.284 0.284-0.427 0.637-0.427 1.056s0.142 0.771 0.427 1.055c0.284 0.284 0.635 0.427 1.055 0.427s0.771-0.142 1.055-0.427c0.284-0.283 0.427-0.635 0.427-1.055zM16 24.889c-0.42 0-0.771 0.142-1.055 0.427-0.284 0.283-0.427 0.635-0.427 1.055s0.142 0.771 0.427 1.055c0.283 0.284 0.635 0.427 1.055 0.427s0.772-0.142 1.056-0.427c0.283-0.283 0.425-0.635 0.425-1.055s-0.142-0.771-0.425-1.055c-0.284-0.284-0.637-0.427-1.056-0.427zM7.111 16c0-0.42-0.142-0.772-0.425-1.056-0.284-0.283-0.637-0.425-1.056-0.425s-0.772 0.142-1.056 0.425c-0.283 0.284-0.425 0.637-0.425 1.056s0.142 0.771 0.425 1.055c0.284 0.284 0.637 0.427 1.056 0.427s0.772-0.142 1.056-0.427c0.283-0.283 0.425-0.635 0.425-1.055zM16 30.815c-2.049 0-3.975-0.389-5.778-1.167-1.802-0.777-3.37-1.833-4.704-3.166s-2.389-2.901-3.166-4.704c-0.778-1.802-1.167-3.729-1.167-5.778s0.389-3.975 1.167-5.778c0.777-1.802 1.833-3.37 3.166-4.704s2.901-2.389 4.704-3.167c1.802-0.777 3.728-1.166 5.778-1.166s3.975 0.389 5.778 1.166c1.802 0.778 3.37 1.834 4.704 3.167s2.389 2.901 3.166 4.704c0.778 1.802 1.167 3.728 1.167 5.778s-0.389 3.975-1.167 5.778c-0.777 1.802-1.833 3.37-3.166 4.704s-2.901 2.389-4.704 3.166c-1.802 0.778-3.728 1.167-5.778 1.167z"></path>
</symbol>
<symbol id="icon-close" width="20" height="20" viewBox="0 0 32 32" x="0" y="0">
<path stroke-linejoin="miter" stroke-linecap="butt" stroke-miterlimit="4" stroke-width="2.1333" d="M8.533 8.533l14.933 14.933"></path>
<path stroke-linejoin="miter" stroke-linecap="butt" stroke-miterlimit="4" stroke-width="2.1333" d="M8.533 23.467l14.933-14.933"></path>
</symbol>
<symbol id="icon-chek" viewBox="0 0 32 32">
<path d="M29.651 2.859c-0.525-0.292-1.102-0.478-1.698-0.546s-1.201-0.019-1.778 0.146c-0.577 0.165-1.117 0.442-1.587 0.816s-0.862 0.836-1.153 1.361l-8.487 15.273-4.857-4.857c-0.422-0.437-0.926-0.785-1.484-1.024s-1.158-0.366-1.765-0.371c-0.607-0.005-1.209 0.11-1.771 0.34s-1.072 0.569-1.501 0.998c-0.429 0.429-0.769 0.94-0.998 1.501s-0.346 1.164-0.34 1.771c0.005 0.607 0.131 1.207 0.371 1.765s0.588 1.062 1.024 1.484l9.143 9.143c0.864 0.866 2.030 1.342 3.232 1.342l0.633-0.046c0.701-0.098 1.369-0.357 1.953-0.758s1.066-0.93 1.41-1.549l11.429-20.571c0.292-0.525 0.477-1.102 0.546-1.698s0.019-1.2-0.145-1.778c-0.165-0.577-0.441-1.117-0.815-1.587s-0.835-0.863-1.36-1.154z"></path>
</symbol>
<symbol id="icon-instagram-logo-fill" viewBox="0 0 32 32">
<path  d="M20.895 16.087c0 0.985-0.292 1.948-0.84 2.768s-1.325 1.458-2.236 1.835c-0.91 0.377-1.912 0.476-2.878 0.284s-1.854-0.667-2.551-1.363c-0.697-0.697-1.171-1.584-1.363-2.551s-0.094-1.968 0.284-2.878c0.377-0.91 1.016-1.688 1.835-2.236s1.782-0.84 2.768-0.84c1.32 0.004 2.585 0.53 3.518 1.464s1.46 2.198 1.464 3.518v0zM31.481 9.237v13.699c0 2.312-0.919 4.529-2.553 6.164s-3.852 2.553-6.165 2.553h-13.699c-2.312 0-4.529-0.919-6.164-2.553s-2.553-3.852-2.553-6.164v-13.699c0-2.312 0.918-4.53 2.553-6.164s3.852-2.553 6.164-2.553h13.699c2.312 0 4.53 0.918 6.165 2.553s2.553 3.852 2.553 6.164v0zM23.386 16.087c0-1.478-0.438-2.923-1.259-4.152s-1.988-2.187-3.354-2.752c-1.365-0.566-2.868-0.714-4.317-0.425s-2.781 1-3.826 2.045c-1.045 1.045-1.757 2.376-2.045 3.826s-0.14 2.952 0.425 4.317c0.566 1.365 1.523 2.532 2.752 3.354s2.674 1.259 4.151 1.259c1.982 0 3.882-0.787 5.284-2.189s2.189-3.302 2.189-5.284zM25.877 7.991c0-0.369-0.11-0.731-0.315-1.038s-0.497-0.547-0.838-0.688c-0.341-0.141-0.717-0.178-1.079-0.106s-0.695 0.25-0.956 0.511c-0.261 0.261-0.439 0.594-0.511 0.957s-0.035 0.738 0.106 1.079c0.141 0.341 0.381 0.633 0.688 0.838s0.668 0.315 1.038 0.315c0.495 0 0.971-0.197 1.321-0.547s0.547-0.825 0.547-1.321z"></path>
</symbol>
<symbol id="icon-facebook" viewBox="0 0 32 32">
<path  d="M29.961 0.314h-27.922c-0.458 0-0.897 0.182-1.22 0.505s-0.505 0.762-0.505 1.22v27.922c0 0.458 0.182 0.896 0.505 1.22s0.762 0.505 1.22 0.505h15.027v-12.157h-4.079v-4.706h4.079v-3.529c-0.085-0.829 0.013-1.666 0.287-2.452s0.715-1.504 1.295-2.102c0.58-0.598 1.284-1.062 2.062-1.359s1.612-0.42 2.443-0.361c1.221-0.008 2.441 0.055 3.655 0.188v4.235h-2.494c-1.976 0-2.353 0.941-2.353 2.306v3.027h4.706l-0.612 4.706h-4.094v12.204h8c0.227 0 0.451-0.045 0.66-0.131s0.4-0.214 0.56-0.374c0.16-0.16 0.287-0.35 0.374-0.56s0.131-0.434 0.131-0.66v-27.922c0-0.227-0.045-0.451-0.131-0.66s-0.214-0.4-0.374-0.56c-0.16-0.16-0.35-0.287-0.56-0.374s-0.434-0.131-0.66-0.131z"></path>
</symbol>
<symbol id="icon-twitter" viewBox="0 0 39 32">
<path  d="M38.405 4.228c-1.392 0.617-2.887 1.033-4.458 1.222 1.622-0.97 2.835-2.498 3.413-4.297-1.524 0.905-3.191 1.542-4.93 1.883-1.169-1.249-2.718-2.076-4.406-2.354s-3.42 0.009-4.928 0.816c-1.508 0.807-2.707 2.090-3.412 3.649s-0.874 3.307-0.484 4.972c-3.087-0.155-6.107-0.957-8.864-2.355s-5.189-3.36-7.139-5.758c-0.667 1.15-1.050 2.483-1.050 3.903-0.001 1.278 0.314 2.537 0.916 3.665s1.474 2.089 2.537 2.799c-1.233-0.039-2.439-0.372-3.517-0.972v0.1c-0 1.793 0.62 3.531 1.755 4.918s2.716 2.34 4.473 2.695c-1.144 0.309-2.343 0.355-3.507 0.133 0.496 1.543 1.462 2.892 2.762 3.858s2.871 1.502 4.491 1.532c-2.75 2.159-6.147 3.33-9.643 3.325-0.619 0-1.238-0.036-1.853-0.108 3.549 2.282 7.681 3.493 11.9 3.488 14.283 0 22.092-11.83 22.092-22.090 0-0.333-0.008-0.67-0.023-1.003 1.519-1.098 2.83-2.458 3.872-4.017l0.003-0.005z"></path>
</symbol>
<symbol id="icon-location-clock" viewBox="0 0 32 32">
<path fill="#1fadfd" style="fill: var(--color3, #1fadfd)" d="M15.984 0c-8.832 0-15.984 7.168-15.984 16s7.152 16 15.984 16c8.848 0 16.016-7.168 16.016-16s-7.168-16-16.016-16zM22.4 22.4c-0.148 0.148-0.324 0.266-0.517 0.346s-0.401 0.122-0.611 0.122-0.417-0.041-0.611-0.122c-0.194-0.080-0.369-0.198-0.517-0.346l-5.264-5.264c-0.151-0.148-0.271-0.325-0.354-0.52s-0.125-0.404-0.126-0.616v-6.4c0-0.88 0.72-1.6 1.6-1.6s1.6 0.72 1.6 1.6v5.744l4.8 4.8c0.624 0.624 0.624 1.632 0 2.256z"></path>
</symbol>
<symbol id="icon-location-three" viewBox="0 0 32 32">
<path fill="#008816" style="fill: var(--color5, #008816)" d="M16 0.64c-1.486-0-2.93 0.492-4.107 1.4s-2.019 2.18-2.396 3.617c-1.628 0.427-3.037 1.448-3.948 2.863s-1.258 3.12-0.973 4.779c-1.197 0.802-2.104 1.968-2.588 3.326s-0.518 2.834-0.099 4.212c0.42 1.379 1.271 2.586 2.429 3.443s2.561 1.32 4.002 1.32h3.84v3.36c0 1.325 1.075 2.4 2.4 2.4h2.88c1.325 0 2.4-1.075 2.4-2.4v-3.36h3.84c1.441 0 2.844-0.462 4.002-1.32s2.009-2.065 2.429-3.443c0.42-1.378 0.385-2.855-0.099-4.212s-1.391-2.523-2.588-3.326c0.285-1.659-0.062-3.364-0.973-4.779s-2.32-2.437-3.948-2.863c-0.377-1.437-1.22-2.709-2.396-3.617s-2.621-1.4-4.107-1.4zM14.080 25.6h3.84v3.36c0 0.127-0.051 0.249-0.141 0.34s-0.212 0.14-0.339 0.14h-2.88c-0.127 0-0.249-0.051-0.339-0.14s-0.141-0.212-0.141-0.34v-3.36z"></path>
</symbol>
<symbol id="icon-location-build" viewBox="0 0 32 32">
<path fill="#0038ff" style="fill: var(--color1, #0038ff)" d="M25.6 13.207l-8.533-4.267v-2.541h6.4v-6.4h-8.533v8.941l-8.533 4.267v3.859h-4.267v12.8h-2.133v2.133h12.8v-8.533h6.4v8.533h12.8v-2.133h-2.133v-12.8h-4.267v-3.859zM27.733 29.867v-10.667h-2.133v10.667h2.133zM6.4 29.867h-2.133v-10.667h2.133v10.667zM12.8 18.133c0-0.849 0.337-1.663 0.937-2.263s1.414-0.937 2.263-0.937 1.663 0.337 2.263 0.937c0.6 0.6 0.937 1.414 0.937 2.263s-0.337 1.663-0.937 2.263c-0.6 0.6-1.414 0.937-2.263 0.937s-1.663-0.337-2.263-0.937c-0.6-0.6-0.937-1.414-0.937-2.263z"></path>
</symbol>
<symbol id="icon-location-bus" viewBox="0 0 32 32">
<path fill="#077281" style="fill: var(--color2, #077281)" d="M16 0c-6.737 0-13.474 0.842-13.474 6.737v16c0 1.6 0.64 3.048 1.684 4.109v2.627c0 1.398 1.128 2.526 2.526 2.526s2.526-1.128 2.526-2.526v-0.842h13.474v0.842c0 1.381 1.128 2.526 2.526 2.526 1.381 0 2.526-1.128 2.526-2.526v-2.627c1.044-1.061 1.684-2.509 1.684-4.109v-16c0-5.895-6.029-6.737-13.474-6.737zM10.105 23.579c-1.398 0-2.526-1.128-2.526-2.526s1.128-2.526 2.526-2.526c1.398 0 2.526 1.128 2.526 2.526s-1.128 2.526-2.526 2.526zM21.895 23.579c-1.398 0-2.526-1.128-2.526-2.526s1.128-2.526 2.526-2.526c1.398 0 2.526 1.128 2.526 2.526s-1.128 2.526-2.526 2.526zM26.105 13.474h-20.211v-5.053h20.211v5.053z"></path>
</symbol>
<symbol id="icon-location-stores" viewBox="0 0 32 32">
<path fill="#746f6f" style="fill: var(--color4, #746f6f)" d="M29.265 0.582c0 0-3.237-0.095-4.529 1.164-1.243 1.21-1.755 2.136-1.755 4.655h-21.644l3.244 11.203c0.007 0.019 0.023 0.035 0.030 0.051 0.547 1.529 1.974 2.63 3.675 2.695l0.030 0.014h15.127v0.465c0 0 0.002 0.698-0.463 1.629s-0.698 1.396-2.56 1.396h-15.127c-2.327 0-2.327 3.491 0 3.491h14.895c2.793 0 4.887-1.629 5.585-3.258s0.698-3.025 0.698-3.025v-14.662c0-1.22 0.533-2.327 1.629-2.327h1.28c0.463 0 0.907-0.184 1.234-0.511s0.511-0.771 0.511-1.234-0.184-0.907-0.511-1.234c-0.327-0.327-0.771-0.511-1.234-0.511h-0.116zM19.956 27.345c-1.396 0-2.327 0.931-2.327 2.327s0.931 2.327 2.327 2.327c1.396 0 2.327-0.931 2.327-2.327s-0.931-2.327-2.327-2.327zM8.32 27.345c-1.396 0-2.327 0.931-2.327 2.327s0.931 2.327 2.327 2.327c1.396 0 2.327-0.931 2.327-2.327s-0.931-2.327-2.327-2.327z"></path>
</symbol>
<symbol id="icon-apartment" viewBox="0 0 32 32">
<path  d="M12.582 3.586v8.826h-1.756v-8.826h-7.024v14.122h7.024v-1.765h1.756v8.826h-1.756v-5.296h-7.024v8.826h12.292v-3.53h1.756v3.53h10.536v-3.53h3.512v7.061h-31.608v-31.774h31.608v21.183h-3.512v-8.826h-10.536v8.826h-1.756v-10.591h12.292v-7.061h-15.804z"></path>
</symbol>
    <symbol id="icon-check-box-hover" viewBox="0 0 42 32">
      <path d="M6.263 15.205l-0.22-0.21-3.307 3.132 11.651 11.114 24.477-23.351-3.285-3.134-21.192 20.197-8.124-7.75z"></path>
    </symbol>
<symbol id="icon-contact-telegram" viewBox="0 0 32 32">
<path fill="#29b6f6" style="fill: var(--color1, #29b6f6)" d="M16 2.667c-7.364 0-13.333 5.97-13.333 13.333s5.97 13.333 13.333 13.333v0c7.364 0 13.333-5.97 13.333-13.333s-5.97-13.333-13.333-13.333v0z"></path>
<path fill="#fff" style="fill: var(--color2, #fff)" d="M22.633 10l-2.497 12.751c0 0-0.107 0.583-0.83 0.583-0.384 0-0.582-0.183-0.582-0.183l-5.409-4.489-2.647-1.334-3.397-0.903c0 0-0.605-0.175-0.605-0.675 0-0.417 0.622-0.615 0.622-0.615l14.211-5.645c-0.001-0.001 0.434-0.157 0.751-0.156 0.195 0 0.417 0.083 0.417 0.333 0 0.167-0.033 0.333-0.033 0.333z"></path>
<path fill="#b0bec5" style="fill: var(--color3, #b0bec5)" d="M15.333 20.337l-2.284 2.249c0 0-0.099 0.077-0.232 0.080-0.046 0.001-0.095-0.006-0.146-0.029l0.643-3.977 2.019 1.676z"></path>
<path fill="#cfd8dc" style="fill: var(--color4, #cfd8dc)" d="M19.931 12.131c-0.113-0.147-0.321-0.173-0.467-0.062l-8.797 5.265c0 0 1.404 3.928 1.618 4.608s0.387 0.697 0.387 0.697l0.643-3.977 6.555-6.064c0.147-0.111 0.174-0.32 0.063-0.467z"></path>
</symbol>
<symbol id="icon-contact_instagram" viewBox="0 0 33 32">
<path fill="#fd46eb" style="fill: var(--color1, #fd46eb)" d="M9.92 0.533h13.44c5.12 0 9.28 4.021 9.28 8.971v12.992c0 2.379-0.978 4.661-2.718 6.343s-4.101 2.627-6.562 2.627h-13.44c-5.12 0-9.28-4.021-9.28-8.971v-12.992c0-2.379 0.978-4.661 2.718-6.343s4.101-2.627 6.562-2.627zM9.6 3.627c-1.528 0-2.993 0.587-4.073 1.631s-1.687 2.46-1.687 3.937v13.611c0 3.078 2.576 5.568 5.76 5.568h14.080c1.528 0 2.993-0.587 4.073-1.631s1.687-2.461 1.687-3.937v-13.611c0-3.078-2.576-5.568-5.76-5.568h-14.080zM25.040 5.947c0.53 0 1.039 0.204 1.414 0.566s0.586 0.854 0.586 1.367-0.211 1.005-0.586 1.367c-0.375 0.363-0.884 0.566-1.414 0.566s-1.039-0.204-1.414-0.566c-0.375-0.363-0.586-0.854-0.586-1.367s0.211-1.005 0.586-1.367c0.375-0.363 0.884-0.566 1.414-0.566zM16.64 8.267c2.122 0 4.157 0.815 5.657 2.265s2.343 3.417 2.343 5.468c0 2.051-0.843 4.018-2.343 5.468s-3.535 2.265-5.657 2.265c-2.122 0-4.157-0.815-5.657-2.265s-2.343-3.417-2.343-5.468c0-2.051 0.843-4.018 2.343-5.468s3.535-2.265 5.657-2.265zM16.64 11.36c-1.273 0-2.494 0.489-3.394 1.359s-1.406 2.050-1.406 3.281 0.506 2.411 1.406 3.281c0.9 0.87 2.121 1.359 3.394 1.359s2.494-0.489 3.394-1.359c0.9-0.87 1.406-2.050 1.406-3.281s-0.506-2.411-1.406-3.281c-0.9-0.87-2.121-1.359-3.394-1.359z"></path>
</symbol>
<symbol id="icon-arrow-forward" viewBox="0 0 40 32">
<path d="M4.874 9.199c0.401-0.322 0.875-0.482 1.423-0.482 0.547 0 1.021 0.161 1.421 0.482l11.736 9.424 11.776-9.456c0.374-0.3 0.841-0.45 1.402-0.45s1.042 0.161 1.442 0.482c0.401 0.322 0.601 0.702 0.601 1.142s-0.2 0.82-0.601 1.141l-13.498 10.807c-0.16 0.129-0.334 0.22-0.521 0.274s-0.387 0.080-0.601 0.080-0.414-0.026-0.601-0.080c-0.187-0.054-0.361-0.145-0.521-0.274l-13.498-10.839c-0.374-0.3-0.561-0.67-0.561-1.109s0.2-0.821 0.601-1.142z"></path>
</symbol>
</defs>
</svg>
